<svg xmlns="http://www.w3.org/2000/svg" xmlns:xlink="http://www.w3.org/1999/xlink" id="Driving_improvements" data-name="Driving improvements" width="77.506" height="67.632" viewBox="0 0 77.506 67.632"><defs><clipPath id="clip-path"><rect id="Rectangle_32" data-name="Rectangle 32" width="77.506" height="67.632" fill="none"></rect></clipPath><linearGradient id="linear-gradient" x1="0.5" x2="0.5" y2="1" gradientUnits="objectBoundingBox"><stop offset="0" stop-color="#3d49f3"></stop><stop offset="1" stop-color="#02d085"></stop></linearGradient></defs><g id="Group_55" data-name="Group 55" clip-path="url(#clip-path)"><path id="Path_64" data-name="Path 64" d="M78.8,47.348a1.213,1.213,0,0,1-.6-.16l-3.877-2.216-3.877,2.216a1.211,1.211,0,0,1-1.787-1.3l.909-4.372-3.306-3a1.211,1.211,0,0,1,.682-2.1l4.439-.486,1.834-4.071a1.211,1.211,0,0,1,2.208,0L77.26,35.93l4.439.486a1.211,1.211,0,0,1,.682,2.1l-3.306,3,.909,4.372A1.211,1.211,0,0,1,78.8,47.348Zm-4.478-4.981a1.208,1.208,0,0,1,.6.16l2.143,1.225-.5-2.417a1.211,1.211,0,0,1,.372-1.143l1.827-1.66-2.455-.269a1.209,1.209,0,0,1-.972-.706L74.321,35.3l-1.014,2.252a1.21,1.21,0,0,1-.972.706l-2.455.269,1.827,1.66a1.211,1.211,0,0,1,.371,1.143l-.5,2.417,2.143-1.225a1.225,1.225,0,0,1,.6-.16Z" transform="translate(-56.488 -26.711)" fill="url(#linear-gradient)"></path><path id="Path_65" data-name="Path 65" d="M225.74,47.348a1.212,1.212,0,0,1-.6-.16l-3.877-2.216-3.877,2.216a1.211,1.211,0,0,1-1.787-1.3l.909-4.372-3.306-3a1.211,1.211,0,0,1,.682-2.1l4.439-.486,1.834-4.071a1.211,1.211,0,0,1,2.208,0L224.2,35.93l4.439.486a1.211,1.211,0,0,1,.682,2.1l-3.306,3,.909,4.372a1.21,1.21,0,0,1-1.185,1.457Zm-4.478-4.981a1.208,1.208,0,0,1,.6.16l2.143,1.225-.5-2.417a1.21,1.21,0,0,1,.372-1.143l1.827-1.66-2.455-.269a1.209,1.209,0,0,1-.972-.706L221.261,35.3l-1.014,2.252a1.21,1.21,0,0,1-.972.706l-2.455.269,1.827,1.66a1.211,1.211,0,0,1,.371,1.143l-.5,2.417,2.143-1.225a1.222,1.222,0,0,1,.6-.16Z" transform="translate(-182.508 -26.711)" fill="url(#linear-gradient)"></path><path id="Path_66" data-name="Path 66" d="M372.68,47.348a1.212,1.212,0,0,1-.6-.16L368.2,44.973l-3.877,2.216a1.211,1.211,0,0,1-1.787-1.3l.909-4.372-3.306-3a1.211,1.211,0,0,1,.682-2.1l4.439-.486,1.834-4.071a1.211,1.211,0,0,1,2.208,0l1.834,4.071,4.439.486a1.211,1.211,0,0,1,.682,2.1l-3.306,3,.909,4.372a1.21,1.21,0,0,1-1.185,1.457ZM368.2,42.367a1.208,1.208,0,0,1,.6.16l2.143,1.225-.5-2.417a1.21,1.21,0,0,1,.371-1.143l1.827-1.66-2.455-.269a1.209,1.209,0,0,1-.972-.706L368.2,35.3l-1.014,2.252a1.21,1.21,0,0,1-.972.706l-2.455.269,1.827,1.66a1.211,1.211,0,0,1,.371,1.143l-.5,2.417,2.143-1.225a1.222,1.222,0,0,1,.6-.16Z" transform="translate(-308.529 -26.711)" fill="url(#linear-gradient)"></path><path id="Path_67" data-name="Path 67" d="M198.87,307.9h-6.638a1.211,1.211,0,1,1,0-2.422h6.638a1.451,1.451,0,0,0,0-2.9H186.116a1.211,1.211,0,1,1,0-2.422H198.87a3.873,3.873,0,0,1,0,7.745Z" transform="translate(-158.58 -257.422)" fill="#fff"></path><path id="Path_68" data-name="Path 68" d="M236.608,345.284h-7.541a1.211,1.211,0,1,1,0-2.423h7.541a1.45,1.45,0,0,0,0-2.9h-7.541a1.211,1.211,0,1,1,0-2.422h7.541a3.872,3.872,0,0,1,0,7.745Z" transform="translate(-195.417 -289.484)" fill="#fff"></path><path id="Path_69" data-name="Path 69" d="M234.138,382.67H227.7a1.211,1.211,0,1,1,0-2.423h6.438a1.451,1.451,0,0,0,0-2.9h-6.244a1.211,1.211,0,1,1,0-2.422h6.243a3.873,3.873,0,0,1,0,7.745Z" transform="translate(-194.243 -321.548)" fill="#fff"></path><path id="Path_70" data-name="Path 70" d="M117.762,420.047H94.882a1.211,1.211,0,1,1,0-2.423h22.88a1.451,1.451,0,0,0,0-2.9h-3.971a1.211,1.211,0,1,1,0-2.422h3.971a3.873,3.873,0,0,1,0,7.746Z" transform="translate(-80.335 -353.602)" fill="#fff"></path><path id="Path_71" data-name="Path 71" d="M131.9,216.217a1.185,1.185,0,0,1-.287-.035,1.211,1.211,0,0,1-.891-1.463l.718-2.955a12.705,12.705,0,0,0,.121-5.5,6.473,6.473,0,0,0-2.191-4.069,1.559,1.559,0,0,0-1.675-.137,1.578,1.578,0,0,0-.874,1.46c.056,3.026-.254,8.638-2.957,12.214a1.211,1.211,0,0,1-1.932-1.46c2.264-2.995,2.518-7.994,2.468-10.708a4.023,4.023,0,0,1,6.418-3.31,8.78,8.78,0,0,1,3.117,5.528,15.15,15.15,0,0,1-.141,6.552l-.718,2.955a1.213,1.213,0,0,1-1.177.925Z" transform="translate(-104.359 -171.063)" fill="#fff"></path><path id="Path_72" data-name="Path 72" d="M50.989,317.908H43.7A1.211,1.211,0,0,1,42.49,316.7V293.033a1.211,1.211,0,0,1,1.211-1.211H50.99a1.211,1.211,0,0,1,1.211,1.211V316.7A1.212,1.212,0,0,1,50.989,317.908Zm-6.077-2.423h4.866V294.244H44.912Z" transform="translate(-36.441 -250.276)" fill="#fff"></path><path id="Path_73" data-name="Path 73" d="M98.879,302.575H94.892a1.211,1.211,0,1,1,0-2.422h3.986a1.211,1.211,0,1,1,0,2.422" transform="translate(-80.344 -257.42)" fill="#fff"></path><path id="Path_74" data-name="Path 74" d="M384.407,353.955a1.211,1.211,0,0,1-1.1-.7,6,6,0,0,0-5.419-3.455h-.56a6,6,0,0,0-5.419,3.455,1.211,1.211,0,0,1-2.2-1.023,8.4,8.4,0,0,1,7.614-4.854h.56a8.4,8.4,0,0,1,7.614,4.854,1.211,1.211,0,0,1-1.1,1.723Z" transform="translate(-316.982 -297.922)" fill="#fff"></path><path id="Path_75" data-name="Path 75" d="M394.723,302.136a5.167,5.167,0,1,1,5.167-5.167A5.173,5.173,0,0,1,394.723,302.136Zm0-7.911a2.745,2.745,0,1,0,2.745,2.745,2.748,2.748,0,0,0-2.745-2.745" transform="translate(-334.096 -250.259)" fill="#fff"></path><path id="Path_76" data-name="Path 76" d="M360.6,282.834a10.83,10.83,0,1,1,7.659-3.172,10.762,10.762,0,0,1-7.659,3.172m0-19.24A8.409,8.409,0,1,0,369.011,272,8.418,8.418,0,0,0,360.6,263.595Z" transform="translate(-299.975 -223.989)" fill="#fff"></path><path id="Path_77" data-name="Path 77" d="M60.627,32.934a1.212,1.212,0,0,1-1.135-.787L56.847,25.07H1.211A1.211,1.211,0,0,1,0,23.858V1.211A1.211,1.211,0,0,1,1.211,0H76.295a1.211,1.211,0,0,1,1.211,1.211V23.858a1.211,1.211,0,0,1-1.211,1.211H64.407l-2.645,7.077a1.211,1.211,0,0,1-1.135.787ZM2.423,22.647H57.688a1.212,1.212,0,0,1,1.135.787l1.805,4.83,1.805-4.83a1.211,1.211,0,0,1,1.135-.787H75.085V2.424H2.423Z" fill="#fff"></path></g></svg>