<svg xmlns="http://www.w3.org/2000/svg" xmlns:xlink="http://www.w3.org/1999/xlink" id="Experience" width="77.333" height="77.334" viewBox="0 0 77.333 77.334"><defs><clipPath id="clip-path"><rect id="Rectangle_39" data-name="Rectangle 39" width="77.333" height="77.334" fill="#1f1f1f"></rect></clipPath><linearGradient id="linear-gradient" x1="0.5" x2="0.5" y2="1" gradientUnits="objectBoundingBox"><stop offset="0" stop-color="#3d49f3"></stop><stop offset="1" stop-color="#02d085"></stop></linearGradient></defs><g id="Group_63" data-name="Group 63" clip-path="url(#clip-path)"><path id="Path_105" data-name="Path 105" d="M1.247,367.472h1.9a11.252,11.252,0,0,0,.448,1.083L2.25,369.9a1.248,1.248,0,0,0,0,1.764l3.535,3.535a1.284,1.284,0,0,0,1.763,0l1.342-1.342a11.053,11.053,0,0,0,1.081.447v1.9a1.248,1.248,0,0,0,1.247,1.247h5a1.248,1.248,0,0,0,1.247-1.247v-1.9a11.075,11.075,0,0,0,1.078-.447l1.346,1.346a1.247,1.247,0,0,0,1.764,0l3.535-3.535a1.247,1.247,0,0,0,0-1.764l-1.347-1.347a11.111,11.111,0,0,0,.445-1.076h1.907a1.248,1.248,0,0,0,1.247-1.247v-5a1.248,1.248,0,0,0-1.247-1.247H24.287a11.076,11.076,0,0,0-.445-1.076l1.347-1.347a1.247,1.247,0,0,0,0-1.764l-3.535-3.535a1.284,1.284,0,0,0-1.763,0L18.545,353.6a11.443,11.443,0,0,0-1.078-.447v-1.9a1.248,1.248,0,0,0-1.247-1.247h-5a1.248,1.248,0,0,0-1.247,1.247v1.9a11.363,11.363,0,0,0-1.081.447L7.55,352.255a1.247,1.247,0,0,0-1.764,0L2.251,355.79a1.248,1.248,0,0,0,0,1.764l1.341,1.341a11.389,11.389,0,0,0-.449,1.084h-1.9A1.248,1.248,0,0,0,0,361.226v5a1.248,1.248,0,0,0,1.247,1.247Zm1.247-5h1.57a1.247,1.247,0,0,0,1.207-.935A8.677,8.677,0,0,1,6.2,359.3a1.248,1.248,0,0,0-.192-1.516L4.9,356.673,6.666,354.9l1.111,1.112a1.247,1.247,0,0,0,1.516.192,8.652,8.652,0,0,1,2.236-.924,1.246,1.246,0,0,0,.936-1.207V352.5h2.5v1.576a1.247,1.247,0,0,0,.934,1.207,8.686,8.686,0,0,1,2.235.927,1.25,1.25,0,0,0,1.516-.192l1.115-1.116,1.771,1.771-1.117,1.118a1.247,1.247,0,0,0-.192,1.516,8.677,8.677,0,0,1,.923,2.234,1.247,1.247,0,0,0,1.207.935h1.583v2.5h-1.58a1.246,1.246,0,0,0-1.207.936,8.723,8.723,0,0,1-.923,2.234,1.248,1.248,0,0,0,.192,1.516l1.116,1.116-1.771,1.771-1.115-1.12a1.247,1.247,0,0,0-1.516-.192,8.669,8.669,0,0,1-2.235.927,1.247,1.247,0,0,0-.934,1.207v1.576h-2.5v-1.574a1.247,1.247,0,0,0-.936-1.207,8.673,8.673,0,0,1-2.236-.924,1.251,1.251,0,0,0-1.516.192l-1.111,1.111L4.9,370.778l1.11-1.11a1.245,1.245,0,0,0,.192-1.516,8.676,8.676,0,0,1-.927-2.238,1.247,1.247,0,0,0-1.207-.935H2.495Z" transform="translate(0 -300.112)" fill="url(#linear-gradient)"></path><path id="Path_106" data-name="Path 106" d="M58.737,414.973a6.237,6.237,0,1,0-6.237-6.237,6.243,6.243,0,0,0,6.237,6.237m0-9.978a3.742,3.742,0,1,1-3.742,3.742,3.746,3.746,0,0,1,3.742-3.742" transform="translate(-45.016 -345.124)" fill="url(#linear-gradient)"></path><path id="Path_107" data-name="Path 107" d="M437.415,6.568a1.247,1.247,0,0,0-.994-.837l-4.513-.688L429.879.719a1.248,1.248,0,0,0-2.26,0l-2.029,4.324-4.513.688a1.248,1.248,0,0,0-.7,2.1l3.3,3.384-.781,4.795a1.248,1.248,0,0,0,1.835,1.293l4.019-2.223,4.021,2.223a1.248,1.248,0,0,0,1.835-1.293l-.781-4.795,3.3-3.384A1.243,1.243,0,0,0,437.415,6.568ZM431.6,9.928A1.246,1.246,0,0,0,431.259,11l.469,2.88-2.377-1.314a1.246,1.246,0,0,0-1.207,0l-2.377,1.314.469-2.88a1.245,1.245,0,0,0-.338-1.071l-2.047-2.1,2.771-.423a1.247,1.247,0,0,0,.941-.7l1.186-2.521L429.932,6.7a1.251,1.251,0,0,0,.941.7l2.771.423Z" transform="translate(-360.146)" fill="url(#linear-gradient)"></path><path id="Path_108" data-name="Path 108" d="M191.307,100a2.513,2.513,0,0,0-1.921.5l-9.786,7.656a6.245,6.245,0,1,0-10.077,1.366,6.181,6.181,0,0,0-3.592,2.447L156.1,125.379a2.5,2.5,0,0,0,2.255,3.917l2.989-.253a2.47,2.47,0,0,0,1.795-1l5.934-7.806.449,5.326-2.946,20.216c-1.113.228-2.23.433-3.354.59l.345,2.47A56.056,56.056,0,0,0,192.4,135.8l.28-.084-.038-.13a58.328,58.328,0,0,0,9.185-10.014,1.247,1.247,0,0,0-.712-1.936l-1.923-.482,7-3.891,1.654,7.444-1.652-.55a1.246,1.246,0,0,0-1.435.5l-.207.312c-15.68,23.871-33.11,29.66-44.972,30.31l.136,2.491c12.352-.679,30.427-6.612,46.6-30.942l2.833.944a1.246,1.246,0,0,0,1.612-1.453l-2.495-11.226a1.247,1.247,0,0,0-1.824-.82L195.22,122.51a1.247,1.247,0,0,0,.3,2.3l3.175.793a56.359,56.359,0,0,1-6.839,7.349l-2.224-7.46a2.494,2.494,0,0,0-1.249-1.462l-5.128-2.671-.8-6.1,11.42-8.7a2.492,2.492,0,0,0,.55-3.389l-1.442-2.118A2.5,2.5,0,0,0,191.309,100Zm-17.551,1.568c.107-.009.214-.014.322-.014a3.752,3.752,0,1,1-.322.014Zm1.7,41.577,2.6-14.979,4.585,2.225L185.343,138a53.432,53.432,0,0,1-9.891,5.145Zm4.918-29.424a1.25,1.25,0,0,0-.482,1.155l.981,7.458a1.245,1.245,0,0,0,.661.943l5.723,2.958,2.535,8.5c-.737.6-1.514,1.2-2.323,1.789l-2.5-7.01a2.488,2.488,0,0,0-1.222-1.325l-6.1-2.991a1.255,1.255,0,0,0-1.116.009,1.242,1.242,0,0,0-.662.9l-3.121,18.014c-1.175.39-2.363.75-3.564,1.059l2.829-19.4a1.281,1.281,0,0,0,.009-.286l-.734-8.7a1.247,1.247,0,0,0-2.235-.65l-7.915,10.414-3,.275,9.827-13.414a3.74,3.74,0,0,1,2.751-1.584l3.883-.328h0l4.97-.42a1.249,1.249,0,0,0,.664-.261l10.692-8.364,1.443,2.118Z" transform="translate(-133.461 -84.935)" fill="#1f1f1f"></path></g></svg>