<svg xmlns="http://www.w3.org/2000/svg" xmlns:xlink="http://www.w3.org/1999/xlink" width="85" height="84" viewBox="0 0 85 84"><defs><clipPath id="clip-path"><rect id="Rectangle_31" data-name="Rectangle 31" width="85" height="84" fill="none"></rect></clipPath><linearGradient id="linear-gradient" x1="0.5" x2="0.5" y2="1" gradientUnits="objectBoundingBox"><stop offset="0" stop-color="#3d49f3"></stop><stop offset="1" stop-color="#02d085"></stop></linearGradient></defs><g id="Improve_accuracy" data-name="Improve accuracy" transform="translate(0 0.333)"><g id="Group_54" data-name="Group 54" transform="translate(0 -0.333)" clip-path="url(#clip-path)"><path id="Path_61" data-name="Path 61" d="M42.014,0C18.846,0,0,18.624,0,41.519S18.846,83.039,42.014,83.039,84.027,64.414,84.027,41.519,65.181,0,42.014,0m0,80.963C20.005,80.963,2.1,63.269,2.1,41.519S20.005,2.076,42.014,2.076,81.927,19.77,81.927,41.519,64.021,80.963,42.014,80.963" transform="translate(0 0.275)" fill="#fff"></path><path id="Path_62" data-name="Path 62" d="M60.212,22.4C39.363,22.4,22.4,39.161,22.4,59.765S39.363,97.133,60.212,97.133,98.025,80.37,98.025,59.765,81.062,22.4,60.212,22.4Zm0,72.659A35.294,35.294,0,1,1,95.924,59.765,35.543,35.543,0,0,1,60.212,95.057Z" transform="translate(-18.199 -17.971)" fill="#fff"></path><path id="Path_63" data-name="Path 63" d="M111.538,47.541l-.613-5.621a1.041,1.041,0,0,0-.614-.836,1.065,1.065,0,0,0-1.04.1l-3.594,2.532-3.972-2.49a1.058,1.058,0,0,0-1.027-.054,1.037,1.037,0,0,0-.582.839l-.5,5.582a27.337,27.337,0,1,0,11.946-.054Zm18.609,20.23a1.042,1.042,0,0,0-.383-.393l-3.97-2.324.9-4.468a1.021,1.021,0,0,0-.072-.611A24.766,24.766,0,0,1,130.147,67.771Zm-5.6-1.032,2.585,1.512-6.551,3.667-3.2-2.022Zm-8.028,1.256.626-3.711,7.137-2.351-.589,2.91ZM106.761,45.5l2.268-1.6.8,7.392-3.068,1.979Zm0,10.252,4.754-3.066a1.034,1.034,0,0,0,.471-.978l-.215-2.011A25.089,25.089,0,0,1,126.347,59.6a1.06,1.06,0,0,0-1.012-.2L116.3,62.375a15.63,15.63,0,0,0-9.535-4.017Zm0,4.676a13.546,13.546,0,0,1,8.3,3.614L114.22,69l-7.459,3.276Zm-1.623,14.315a1.058,1.058,0,0,0,1,.078l8.933-3.924,4.292,2.711c0,.088,0,.175,0,.264A13.656,13.656,0,1,1,104.66,60.435V73.877A1.035,1.035,0,0,0,105.138,74.747ZM101.62,48.514l.415-4.619,2.624,1.646v7.806l-3.3-1.984.257-2.844s0,0,0,0Zm4.091,50.275A24.884,24.884,0,0,1,99.4,49.754l-.186,2.067a1.035,1.035,0,0,0,.5.979l4.947,2.977V58.36a15.569,15.569,0,1,0,16.806,15.517c0-.022,0-.043,0-.064l3.945-2.208,4.338-2.429a1.039,1.039,0,0,0,.493-.624.977.977,0,0,0,.031-.214,24.618,24.618,0,0,1,.648,5.539A25.09,25.09,0,0,1,105.71,98.788Z" transform="translate(-63.697 -33.12)" fill="url(#linear-gradient)"></path></g></g></svg>