<svg xmlns="http://www.w3.org/2000/svg" xmlns:xlink="http://www.w3.org/1999/xlink" id="our_Highly" width="77.765" height="75" viewBox="0 0 77.765 75"><defs><clipPath id="clip-path"><rect id="Rectangle_29" data-name="Rectangle 29" width="77.765" height="75" fill="none"></rect></clipPath><linearGradient id="linear-gradient" x1="0.5" x2="0.5" y2="1" gradientUnits="objectBoundingBox"><stop offset="0" stop-color="#3d49f3"></stop><stop offset="1" stop-color="#02d085"></stop></linearGradient></defs><g id="Group_52" data-name="Group 52" clip-path="url(#clip-path)"><path id="Path_39" data-name="Path 39" d="M210.879,211.641a10.573,10.573,0,1,0-3.1,7.464,10.56,10.56,0,0,0,3.1-7.464m-10.56,8.067h0a7.971,7.971,0,1,1,.04,0Z" transform="translate(-161.451 -171.084)" fill="url(#linear-gradient)"></path><path id="Path_40" data-name="Path 40" d="M234.954,247.294l-3.746,4.19-1.305-1.305a1.305,1.305,0,1,0-1.71,1.815l2.31,2.18h0a1.2,1.2,0,0,0,.849.34,1.307,1.307,0,0,0,.888-.418l4.608-5.221a1.305,1.305,0,0,0-1.867-1.671Z" transform="translate(-193.528 -210.158)" fill="url(#linear-gradient)"></path><path id="Path_41" data-name="Path 41" d="M224.9,4.947a6.708,6.708,0,0,0,1.762,4.817,4.411,4.411,0,0,0,3.224,1.422c3.172,0,5.221-2.963,5.3-5.821h0a5.067,5.067,0,0,0-1.305-3.707A5.221,5.221,0,0,0,230.3,0h-.209a5.129,5.129,0,0,0-5.2,4.947Zm5.221-2.454a2.716,2.716,0,0,1,1.853.861,2.61,2.61,0,0,1,.692,1.906c0,1.383-.979,3.433-2.806,3.433a1.931,1.931,0,0,1-1.423-.653,4.257,4.257,0,0,1-1.07-2.989,2.611,2.611,0,0,1,2.78-2.558Z" transform="translate(-191.345 0)" fill="#1f1f1f"></path><path id="Path_42" data-name="Path 42" d="M191.333,93.847v2.611a1.29,1.29,0,0,0,1.906,1.109,16.853,16.853,0,0,1,7.636-2.167,1.305,1.305,0,0,0,1.2-1.305,1.213,1.213,0,0,0-1.305-1.2,19.508,19.508,0,0,0-6.97,1.579v-.627a5.078,5.078,0,0,1,5.077-5.091h4.895a5.115,5.115,0,0,1,5.064,5.091V96.34a1.305,1.305,0,1,0,2.611,0V93.847a7.609,7.609,0,0,0-7.584-7.571h-5.013a7.571,7.571,0,0,0-7.518,7.571Z" transform="translate(-162.79 -73.405)" fill="#1f1f1f"></path><path id="Path_43" data-name="Path 43" d="M273.9,131.917a1.228,1.228,0,0,0-1.436,1.005,1.305,1.305,0,0,0,1.005,1.449l.9.183a1.025,1.025,0,0,0,.287,0,1.249,1.249,0,0,0,.275-2.467C274.587,132.048,274.248,131.97,273.9,131.917Z" transform="translate(-231.804 -112.22)"></path><path id="Path_44" data-name="Path 44" d="M452.2,170.179a5.218,5.218,0,0,0-1.305.156,6.777,6.777,0,0,0-4.125,3.055,4.374,4.374,0,0,0-.444,3.5,5.4,5.4,0,0,0,5.443,3.642,6.246,6.246,0,0,0,1.645-.209,5.143,5.143,0,0,0-1.305-10.142Zm2.272,6.527a2.611,2.611,0,0,1-1.632,1.214,4.5,4.5,0,0,1-1.031.131,2.989,2.989,0,0,1-3.054-1.854,2.01,2.01,0,0,1,.222-1.554,4.319,4.319,0,0,1,2.611-1.867,2.2,2.2,0,0,1,.653-.091,2.611,2.611,0,0,1,2.271,4.021Z" transform="translate(-379.589 -144.791)" fill="#1f1f1f"></path><path id="Path_45" data-name="Path 45" d="M359.586,171.486a7.611,7.611,0,0,0-9.437-5.091l-2.454.731h0a1.306,1.306,0,0,0-.875,1.057,1.228,1.228,0,0,0,.365,1.083,16.757,16.757,0,0,1,4.242,6.722,1.306,1.306,0,0,0,2.363-.8,19.107,19.107,0,0,0-3.5-6.239l.575-.17h0a5.091,5.091,0,0,1,6.318,3.407l1.4,4.673a5.1,5.1,0,0,1-3.42,6.344l-2.389.731a1.305,1.305,0,0,0,.352,2.441,1.119,1.119,0,0,0,.353,0l2.4-.705a7.623,7.623,0,0,0,5.1-9.437Z" transform="translate(-295.069 -141.308)" fill="#1f1f1f"></path><path id="Path_46" data-name="Path 46" d="M384.064,250.369a1.3,1.3,0,0,0,1.175-1.305,4.774,4.774,0,0,0-.078-1.044,1.248,1.248,0,1,0-2.48.274v.914A1.3,1.3,0,0,0,384.064,250.369Z" transform="translate(-325.589 -210.073)"></path><path id="Path_47" data-name="Path 47" d="M362.366,427.965a4.174,4.174,0,0,0-2.48.783c-2.611,1.8-2.611,5.391-1.044,7.832a5.156,5.156,0,1,0,8.693-5.535,6.528,6.528,0,0,0-5.169-3.08Zm2.245,8.067h0a2.714,2.714,0,0,1-3.668-.822c-.744-1.162-1.136-3.381.365-4.412a1.748,1.748,0,0,1,1.058-.326,4.045,4.045,0,0,1,3.054,1.893,2.61,2.61,0,0,1-.809,3.668Z" transform="translate(-304.4 -364.121)" fill="#1f1f1f"></path><path id="Path_48" data-name="Path 48" d="M288.459,329.009,287,326.921a1.306,1.306,0,0,0-1.305-.509,1.228,1.228,0,0,0-.939.692,16.9,16.9,0,0,1-5.052,6.135,1.305,1.305,0,0,0,1.5,2,19.785,19.785,0,0,0,4.83-5.221l.339.483a5.09,5.09,0,0,1-1.305,7.074l-3.994,2.794a5.09,5.09,0,0,1-7.088-1.305l-1.423-2.036a1.227,1.227,0,0,0-1.736-.313,1.305,1.305,0,0,0-.314,1.736l1.423,2.049a7.695,7.695,0,0,0,10.56,1.932l4.007-2.794h0a7.584,7.584,0,0,0,1.958-10.625Z" transform="translate(-229.985 -277.697)" fill="#1f1f1f"></path><path id="Path_49" data-name="Path 49" d="M304.344,382.785l-.836.353h0a1.305,1.305,0,0,0,.457,2.415,1.425,1.425,0,0,0,.457-.091c.326-.131.653-.261.966-.418h0a1.306,1.306,0,1,0-1.044-2.259Z" transform="translate(-257.683 -325.39)"></path><path id="Path_50" data-name="Path 50" d="M91.991,422.719a4.789,4.789,0,0,0-2.885-.966,6.526,6.526,0,0,0-4.856,2.428,5.18,5.18,0,0,0,3.981,8.472,5.117,5.117,0,0,0,3.994-1.906,6.776,6.776,0,0,0,1.488-4.908,4.413,4.413,0,0,0-1.723-3.12Zm-1.7,6.4a2.653,2.653,0,1,1-4.112-3.355,4.035,4.035,0,0,1,2.924-1.5,2.21,2.21,0,0,1,1.383.457,1.948,1.948,0,0,1,.744,1.305,4.321,4.321,0,0,1-.94,3.094Z" transform="translate(-70.692 -358.836)" fill="#1f1f1f"></path><path id="Path_51" data-name="Path 51" d="M134.249,333.835a16.838,16.838,0,0,1-7.414-2.859,1.305,1.305,0,0,0-1.423,2.05,19.2,19.2,0,0,0,6.527,2.911l-.353.483a5.091,5.091,0,0,1-7.114,1.031l-3.916-2.924a5.1,5.1,0,0,1-1.031-7.127l1.5-2h0a1.305,1.305,0,0,0-2-1.488l-1.5,2a7.61,7.61,0,0,0,1.54,10.612l3.916,2.924a7.516,7.516,0,0,0,4.53,1.5,7.678,7.678,0,0,0,1.1-.079,7.467,7.467,0,0,0,4.986-2.963l1.5-2.049a1.3,1.3,0,0,0,.092-1.305A1.227,1.227,0,0,0,134.249,333.835Z" transform="translate(-98.723 -275.382)" fill="#1f1f1f"></path><path id="Path_52" data-name="Path 52" d="M152.971,353.346a1.226,1.226,0,0,0,.914.4,1.22,1.22,0,0,0,.861-2.1c-.209-.222-.4-.457-.6-.692a1.305,1.305,0,0,0-1.919,1.605,8.3,8.3,0,0,1,.744.783Z" transform="translate(-129.427 -298.418)"></path><path id="Path_53" data-name="Path 53" d="M7.122,164.2a5.156,5.156,0,1,0-3.512,9.686,6.832,6.832,0,0,0,2.323.392,5.025,5.025,0,0,0,5.13-3.263C12.03,167.99,9.811,165.184,7.122,164.2Zm1.566,6.057a2.7,2.7,0,0,1-2.754,1.514,4.152,4.152,0,0,1-1.475-.209,2.649,2.649,0,1,1,.9-5.221,2.744,2.744,0,0,1,.914.157C7.566,167.025,9.236,168.526,8.689,170.262Z" transform="translate(0 -139.377)" fill="#1f1f1f"></path><path id="Path_54" data-name="Path 54" d="M82.312,183.96l2.441.77a1.652,1.652,0,0,0,.339,0,1.371,1.371,0,0,0,.979-.418,1.306,1.306,0,0,0,.314-1.123,16.824,16.824,0,0,1,.248-7.936,1.305,1.305,0,0,0-2.415-.665,19.257,19.257,0,0,0-.6,7.166l-.561-.17a5.1,5.1,0,0,1-3.328-6.383l1.462-4.647h0a5.1,5.1,0,0,1,6.383-3.328l2.376.744a1.247,1.247,0,0,0,.757-2.376l-2.389-.757a7.61,7.61,0,0,0-9.5,4.96l-1.462,4.66a7.584,7.584,0,0,0,4.96,9.5Z" transform="translate(-65.517 -139.957)" fill="#1f1f1f"></path><path id="Path_55" data-name="Path 55" d="M137.275,196.612a1.3,1.3,0,0,0-1.71.444c-.17.3-.353.6-.509.914a1.247,1.247,0,0,0,2.206,1.162c.143-.274.3-.535.457-.8h0A1.306,1.306,0,0,0,137.275,196.612Z" transform="translate(-114.802 -167.151)"></path></g></svg>