<svg xmlns="http://www.w3.org/2000/svg" xmlns:xlink="http://www.w3.org/1999/xlink" id="Safety" width="74.333" height="66.389" viewBox="0 0 74.333 66.389"><defs><clipPath id="clip-path"><rect id="Rectangle_36" data-name="Rectangle 36" width="74.333" height="66.389" fill="#1f1f1f"></rect></clipPath><linearGradient id="linear-gradient" x1="0.5" x2="0.5" y2="1" gradientUnits="objectBoundingBox"><stop offset="0" stop-color="#3d49f3"></stop><stop offset="1" stop-color="#02d085"></stop></linearGradient></defs><g id="Group_60" data-name="Group 60" clip-path="url(#clip-path)"><path id="Path_94" data-name="Path 94" d="M261.966,109.218c-.083.647-.154,1.3-.251,1.94a14.3,14.3,0,0,1-2.531,6.207q-5.195,7.326-10.386,14.655a6.84,6.84,0,0,1-.628.8,1.354,1.354,0,0,1-1.667.206,1.29,1.29,0,0,1-.507-1.6,3.941,3.941,0,0,1,.465-.819c3.275-4.631,6.515-9.288,9.851-13.875A13.934,13.934,0,0,0,259.14,108c-.11-6.888-.033-13.779-.034-20.668,0-.339.009-.681-.021-1.018a1.988,1.988,0,0,0-3.966,0c-.032.337-.024.679-.024,1.018,0,5.216-.075,10.433.024,15.646a12.1,12.1,0,0,1-3.772,9.407c-1.909,1.855-3.65,3.882-5.471,5.828a5.045,5.045,0,0,1-.745.688,1.282,1.282,0,0,1-1.725-.1,1.253,1.253,0,0,1-.128-1.722c.53-.69,1.134-1.324,1.728-1.961,1.669-1.789,3.366-3.553,5.013-5.362a3.815,3.815,0,0,0,.818-1.424,2.2,2.2,0,0,0-.887-2.506,2.106,2.106,0,0,0-2.526-.134c-2.261,1.5-4.562,2.954-6.682,4.636a17.959,17.959,0,0,0-6.408,10.78q-1.085,5.2-2.185,10.4a6.036,6.036,0,0,1-.157.635,1.317,1.317,0,0,1-1.591,1.031,1.331,1.331,0,0,1-1.032-1.594c.048-.384.14-.763.22-1.143.732-3.464,1.431-6.936,2.208-10.391a21.362,21.362,0,0,1,9.4-13.488q2.086-1.39,4.153-2.81a5.173,5.173,0,0,1,6.41-.006c.114.078.246.13.517.269.04-.468.1-.835.1-1.2q.01-8.078,0-16.156a4.614,4.614,0,0,1,1.939-4.018,4.747,4.747,0,0,1,7.475,3.164c.037.237.116.468.176.7Z" transform="translate(-187.633 -66.871)" fill="#1f1f1f"></path><path id="Path_95" data-name="Path 95" d="M108.141,37.812c-1.38,0-2.76.012-4.139,0-1.033-.012-1.641-.539-1.626-1.361.014-.757.648-1.281,1.615-1.335.121-.007.242-.005.363-.009.93-.033,1.012-.118,1.025-1.078.005-.388,0-.776,0-1.164.015-1.438.484-2.137,1.424-2.125.911.012,1.369.7,1.386,2.09.005.461.021.922,0,1.382-.025.6.227.869.847.9,2.144.106,2.144.12,2.143-2.009,0-.7.012-1.408-.012-2.11a5.983,5.983,0,0,0-4-5.466c-1.353-.444-2.765-.708-4.147-1.065-.546-.141-.732.205-.907.606q-1.031,2.368-2.069,4.732c-.078.178-.149.359-.241.53a1.441,1.441,0,0,1-1.3.9,1.374,1.374,0,0,1-1.283-.917q-1.1-2.454-2.178-4.922c-.476-1.087-.47-1.089-1.618-.811q-1.235.3-2.471.6a6.145,6.145,0,0,0-5.121,6.469c0,.873.013,1.747,0,2.62-.008.576.245.841.826.846,2.5.019,2.122.118,2.168-1.977a6.564,6.564,0,0,1,.153-1.437,1.187,1.187,0,0,1,1.222-.948,1.166,1.166,0,0,1,1.275.968,13.718,13.718,0,0,1,.153,2.166c.028,1.153.039,1.17,1.169,1.243a2.584,2.584,0,0,1,.913.188,1.207,1.207,0,0,1,.757,1.353A1.251,1.251,0,0,1,93.38,37.77a3.775,3.775,0,0,1-.651.042c-2.59,0-5.18.009-7.77,0-1.4-.005-1.821-.428-1.834-1.828-.012-1.383,0-2.765-.007-4.148-.006-1.085-.093-1.173-1.149-1.177-1.646-.006-3.292.007-4.938-.007-1.549-.014-2.058-.506-2.024-2.063a18.8,18.8,0,0,1,.271-3.825,6.311,6.311,0,0,1,4.331-4.616c.817-.291,1.689-.426,2.528-.659.725-.2.815-.566.245-1.055A6.439,6.439,0,0,1,80.06,13.1c.03-1.042-.006-2.086.016-3.129a6.059,6.059,0,0,1,3.47-5.562,6.05,6.05,0,0,1,6.473.409c.507.337.768.308,1.064-.248a8.362,8.362,0,0,1,14.9-.007c.352.657.659.484,1.133.192a6.261,6.261,0,0,1,9.121,2.416A8.092,8.092,0,0,1,117,10.234a25.741,25.741,0,0,1-.122,4.353,5.879,5.879,0,0,1-2.085,3.727,3.547,3.547,0,0,0-.487.748,3.6,3.6,0,0,0,.76.453c.787.238,1.6.383,2.384.637a6.624,6.624,0,0,1,4.567,6.125c.023.849.019,1.7.009,2.547-.015,1.289-.5,1.789-1.812,1.821-1.185.029-2.372.011-3.558.013-.557,0-1.114,0-1.67,0-.97.01-1.076.11-1.084,1.1-.011,1.455.008,2.911-.012,4.366-.017,1.223-.464,1.671-1.678,1.686-1.355.017-2.711,0-4.067,0M104.2,12.241c.3-1.076-.335-1.781-1.4-2.259a8.674,8.674,0,0,1-1.132-.652.8.8,0,0,0-1.052.063A9.549,9.549,0,0,1,94.9,11.431c-2.235.119-2.233.143-1.953,2.372a5.623,5.623,0,0,0,7.124,4.671c2.646-.775,4.122-2.94,4.129-6.233m2.311,10.036a2.676,2.676,0,0,0,.251.214.9.9,0,0,0,.2.083,9.082,9.082,0,0,1,6.117,4.835,1.1,1.1,0,0,0,.8.487c1.569.047,3.14.03,4.71.021a.651.651,0,0,0,.722-.643,4.133,4.133,0,0,0-3.01-4.611c-1.07-.3-2.151-.565-3.236-.8a1.769,1.769,0,0,1-1.554-1.412c-.123-.6-.585-.538-1.021-.554s-.747.134-.822.616a1.529,1.529,0,0,1-1.3,1.289c-.577.144-1.153.3-1.856.478m-16.118.151c0-.062,0-.124,0-.185-.572-.146-1.143-.3-1.717-.437a1.527,1.527,0,0,1-1.31-1.284c-.086-.529-.43-.635-.892-.63s-.86.04-.971.625a1.628,1.628,0,0,1-1.385,1.315c-1.038.241-2.075.484-3.106.75A4.084,4.084,0,0,0,77.7,26.989c.012.636.241.949.892.944,1.477-.01,2.953-.008,4.43-.005a1.062,1.062,0,0,0,1.028-.658,8.779,8.779,0,0,1,5.7-4.61c.22-.062.432-.154.648-.232M103.981,7.493a4.453,4.453,0,0,0,0-.552A5.628,5.628,0,0,0,92.9,8.066a.565.565,0,0,0,.622.63c2.243.081,4.344-.255,6-1.987a1.68,1.68,0,0,1,2.509-.326c.6.344,1.205.685,1.954,1.11M90.114,13.059c0-.145,0-.291,0-.436-.015-.886-.1-.947-.918-.689a4.849,4.849,0,0,1-.9.264c-1.531.164-3.063.329-4.6.434-.677.046-.941.305-.916.987a3.671,3.671,0,0,0,2.781,3.4c2.475.586,4.535-1.205,4.555-3.962m24.12.514c.085-.571-.156-.948-.864-.927a15.086,15.086,0,0,1-5.849-.8c-.348-.131-.618-.01-.586.376a10.733,10.733,0,0,0,.351,2.7,3.491,3.491,0,0,0,4,2.136,3.582,3.582,0,0,0,2.945-3.483M84.62,9.905A10.2,10.2,0,0,0,89.2,9c.378-.169.6-.372.368-.834a3.712,3.712,0,0,0-3.653-1.7,3.569,3.569,0,0,0-3.028,2.742c-.061.417.07.671.507.691.409.018.82,0,1.23,0m27.725.015c.338,0,.676.011,1.013,0,.8-.031.98-.3.688-1.064a3.542,3.542,0,0,0-3-2.4,3.491,3.491,0,0,0-3.357,1.432c-.507.627-.439.859.292,1.177a10.268,10.268,0,0,0,4.367.854m-14,16.255.318,0c.5-1.167,1.011-2.332,1.508-3.5a1.843,1.843,0,0,0,.1-.494c.069-.563-.106-.869-.752-.821s-1.3.023-1.949.009c-.76-.016-1.038.207-.789.946.443,1.316,1.033,2.581,1.562,3.867m-4.586-5.908.049-.126c-.726-.763-1.431-1.549-2.2-2.263-.106-.1-.624.082-.806.273a3.967,3.967,0,0,0-.584,1.045.615.615,0,0,0,.275.2c1.087.3,2.178.583,3.268.872m9.336.04c.99-.254,1.811-.434,2.61-.683a8.163,8.163,0,0,0,1.175-.576c-.282-.371-.562-.742-.846-1.111-.029-.037-.074-.088-.111-.088-.173,0-.418-.058-.509.034-.744.743-1.459,1.516-2.32,2.424" transform="translate(-61.362 0)" fill="url(#linear-gradient)"></path><path id="Path_96" data-name="Path 96" d="M9.649,103.977c.319-.192.485-.278.637-.385a4.82,4.82,0,0,1,5.725-.223,85.4,85.4,0,0,1,7.663,5.5,18.23,18.23,0,0,1,6.071,9.723c1.077,4.2,1.874,8.477,2.775,12.724a1.356,1.356,0,0,1-1,1.8c-.812.159-1.425-.267-1.639-1.254-.77-3.556-1.53-7.114-2.256-10.679a18.886,18.886,0,0,0-8.223-12.3q-2.226-1.508-4.467-2.994a2.391,2.391,0,0,0-3.338.236,2.524,2.524,0,0,0,.215,3.492c2.076,2.239,4.168,4.462,6.247,6.7a4.847,4.847,0,0,1,.71.912,1.3,1.3,0,0,1-1.732,1.752,2.426,2.426,0,0,1-.639-.47c-2.307-2.454-4.627-4.9-6.9-7.383a10.636,10.636,0,0,1-2.667-7.495q.014-8.407,0-16.813c0-1.281-.375-1.9-1.32-2.264a1.951,1.951,0,0,0-2.642,1.5A5.8,5.8,0,0,0,2.82,87c0,7.23.026,14.46-.016,21.69a11.846,11.846,0,0,0,2.138,6.972c.715,1.038,1.449,2.064,2.164,3.1a3.168,3.168,0,0,1,.424.758,1.306,1.306,0,0,1-2.162,1.392,2.779,2.779,0,0,1-.327-.389c-.844-1.184-1.693-2.365-2.524-3.559a14.6,14.6,0,0,1-2.5-8.524q-.032-10.626,0-21.253a5.233,5.233,0,0,1,1.644-4.265,4.537,4.537,0,0,1,5-.863,4.272,4.272,0,0,1,2.856,4.1c.054,5.507.025,11.014.035,16.522,0,.39.058.781.1,1.294" transform="translate(0 -66.804)" fill="#1f1f1f"></path><path id="Path_97" data-name="Path 97" d="M66.531,337.7a4.649,4.649,0,0,1-.941,1.054,1.087,1.087,0,0,1-1.451-.253c-.843-1.114-1.652-2.257-2.409-3.431a1.157,1.157,0,0,1,.335-1.561c.473-.419,1.117-.546,1.5-.073.984,1.206,1.85,2.508,2.754,3.779.063.088.044.234.064.352l.145.132" transform="translate(-50.354 -272.536)" fill="#1f1f1f"></path><path id="Path_98" data-name="Path 98" d="M47.962,311.346a1.283,1.283,0,0,1-1.268,1.313,1.252,1.252,0,0,1-1.284-1.356,1.277,1.277,0,0,1,1.293-1.283,1.294,1.294,0,0,1,1.26,1.327" transform="translate(-37.149 -253.625)" fill="#1f1f1f"></path><path id="Path_99" data-name="Path 99" d="M198.469,193.253a1.312,1.312,0,0,1,1.276,1.32,1.276,1.276,0,1,1-2.551,0,1.311,1.311,0,0,1,1.275-1.321" transform="translate(-161.324 -158.1)" fill="#1f1f1f"></path></g></svg>