<svg xmlns="http://www.w3.org/2000/svg" xmlns:xlink="http://www.w3.org/1999/xlink" id="Scalability" width="63" height="63" viewBox="0 0 63 63"><defs><clipPath id="clip-path"><rect id="Rectangle_37" data-name="Rectangle 37" width="63" height="63" transform="translate(0 -0.333)" fill="none"></rect></clipPath><linearGradient id="linear-gradient" x1="0.5" x2="0.5" y2="1" gradientUnits="objectBoundingBox"><stop offset="0" stop-color="#3d49f3"></stop><stop offset="1" stop-color="#02d085"></stop></linearGradient></defs><g id="Group_61" data-name="Group 61" transform="translate(0 0.333)" clip-path="url(#clip-path)"><path id="Path_100" data-name="Path 100" d="M59.149,0h-48.3A3.948,3.948,0,0,0,6.9,3.943V35.489H3.943A3.948,3.948,0,0,0,0,39.432v3.943a3.9,3.9,0,0,0,.549,1.972A3.9,3.9,0,0,0,0,47.319v3.943a3.9,3.9,0,0,0,.549,1.972A3.9,3.9,0,0,0,0,55.205v3.943a3.947,3.947,0,0,0,3.943,3.943h13.8a3.947,3.947,0,0,0,3.943-3.943V56.191H59.149a3.947,3.947,0,0,0,3.943-3.943V3.943A3.948,3.948,0,0,0,59.149,0M3.943,39.432h13.8l0,3.943H3.943Zm0,7.886h13.8l0,3.943H3.943Zm0,11.83V55.205h13.8l0,3.943Zm55.205-6.9h-37.6a3.9,3.9,0,0,0,.14-.986V47.319a3.9,3.9,0,0,0-.549-1.972,3.9,3.9,0,0,0,.549-1.972V39.432a3.948,3.948,0,0,0-3.943-3.943h-6.9V3.943h48.3Z" transform="translate(0 -0.427)" fill="#1f1f1f"></path><path id="Path_101" data-name="Path 101" d="M209.975,93.572a1.964,1.964,0,0,0,1.394-.577l22.266-22.266v3.127a1.972,1.972,0,0,0,3.943,0V65.969A1.972,1.972,0,0,0,235.607,64H227.72a1.972,1.972,0,0,0,0,3.943h3.127L208.581,90.206a1.971,1.971,0,0,0,1.394,3.365Z" transform="translate(-182.372 -56.537)" fill="url(#linear-gradient)"></path></g></svg>