<svg xmlns="http://www.w3.org/2000/svg" xmlns:xlink="http://www.w3.org/1999/xlink" id="Seamless_Integration" data-name="Seamless Integration" width="65" height="64.981" viewBox="0 0 65 64.981"><defs><clipPath id="clip-path"><rect id="Rectangle_38" data-name="Rectangle 38" width="65" height="64.981" fill="#1f1f1f"></rect></clipPath><linearGradient id="linear-gradient" x1="0.5" x2="0.5" y2="1" gradientUnits="objectBoundingBox"><stop offset="0" stop-color="#3d49f3"></stop><stop offset="1" stop-color="#02d085"></stop></linearGradient></defs><g id="Group_62" data-name="Group 62" clip-path="url(#clip-path)"><path id="Path_102" data-name="Path 102" d="M36.784,0A2.052,2.052,0,0,1,38.21,1.849a1.9,1.9,0,0,1-1.738,1.966c-.211.02-.425.01-.638.01H8.044a3.84,3.84,0,0,0-4.217,4.2q0,24.454,0,48.907a3.843,3.843,0,0,0,4.2,4.218H56.938a3.846,3.846,0,0,0,4.217-4.206q0-14.011,0-28.022a1.921,1.921,0,0,1,1.962-2.156A1.894,1.894,0,0,1,64.972,28.5c.012.134.008.27.008.406q0,14.185,0,28.37A7.6,7.6,0,0,1,58.952,64.8a8.028,8.028,0,0,1-1.725.176q-24.744.014-49.487,0A7.618,7.618,0,0,1,0,57.206Q0,32.55,0,7.893A7.607,7.607,0,0,1,6.521.087,1.078,1.078,0,0,0,6.731,0Z" transform="translate(0)" fill="#1f1f1f"></path><path id="Path_103" data-name="Path 103" d="M412.851,0a2.441,2.441,0,0,1,1.411,2.574c-.046,4.772-.018,9.544-.019,14.317a1.967,1.967,0,0,1-2.2,2.231q-7.361.007-14.723,0a1.98,1.98,0,0,1-2.2-2.234c0-4.83.016-9.661-.013-14.491a2.245,2.245,0,0,1,1.5-2.4ZM398.982,15.264h11.393V3.841H398.982Z" transform="translate(-349.263)" fill="#1f1f1f"></path><path id="Path_104" data-name="Path 104" d="M150.953,147.1h.8q6.092,0,12.183,0c1.612,0,2.295.682,2.295,2.287q0,7.281,0,14.562c0,1.564-.691,2.251-2.271,2.251q-14.91,0-29.82,0c-1.612,0-2.29-.68-2.29-2.289q0-14.91,0-29.82c0-1.6.68-2.278,2.3-2.278q7.252,0,14.5,0c1.606,0,2.292.686,2.293,2.292q0,6.121,0,12.241v.753m-15.229-.049h11.364V135.667H135.723Zm11.384,3.931H135.715v11.353h11.392Zm15.281-.018H151v11.364h11.387Z" transform="translate(-116.554 -116.518)" fill="url(#linear-gradient)"></path></g></svg>