<svg xmlns="http://www.w3.org/2000/svg" xmlns:xlink="http://www.w3.org/1999/xlink" id="Significant_cost" data-name="Significant cost" width="82.688" height="88.5" viewBox="0 0 82.688 88.5"><defs><clipPath id="clip-path"><rect id="Rectangle_30" data-name="Rectangle 30" width="82.688" height="88.5" fill="none"></rect></clipPath><linearGradient id="linear-gradient" x1="0.5" x2="0.5" y2="1" gradientUnits="objectBoundingBox"><stop offset="0" stop-color="#3d49f3"></stop><stop offset="1" stop-color="#02d085"></stop></linearGradient></defs><g id="Group_53" data-name="Group 53" clip-path="url(#clip-path)"><path id="Path_56" data-name="Path 56" d="M78.624,0A28.316,28.316,0,1,1,50.241,28.2,28.344,28.344,0,0,1,78.624,0M78.6,9.3A19.017,19.017,0,1,0,97.626,28.341,19.017,19.017,0,0,0,78.6,9.3M63.9,11.4a60.971,60.971,0,0,1,6.29-3.467,58.918,58.918,0,0,1,6.782-1.941V3.166a25.2,25.2,0,0,0-15.012,6.22L63.9,11.4m31.354-2A25.23,25.23,0,0,0,80.2,3.175V6.262a22.3,22.3,0,0,1,12.811,5.275l2.24-2.14M61.576,13.76,59.64,11.687A25.03,25.03,0,0,0,53.42,26.729h2.793a60.161,60.161,0,0,1,1.967-6.8,59.63,59.63,0,0,1,3.4-6.166M103.764,26.72a25.085,25.085,0,0,0-6.233-15.043l-2.194,2.184a22.4,22.4,0,0,1,5.358,12.86ZM93.076,45.011A22.3,22.3,0,0,1,80.22,50.355v3.08a25.131,25.131,0,0,0,15.049-6.241l-2.193-2.182M76.988,50.351a22.428,22.428,0,0,1-12.965-5.4c-.61.64-1.187,1.244-1.76,1.851-.107.113-.2.242-.337.418a25.152,25.152,0,0,0,15.062,6.2Zm26.777-20.407h-3.1a22.423,22.423,0,0,1-5.4,12.909c.419.387.778.711,1.128,1.044s.714.7,1.1,1.077a25.23,25.23,0,0,0,6.268-15.03m-50.357-.02a25.019,25.019,0,0,0,6.159,14.911l2.263-2.1a22.3,22.3,0,0,1-5.338-12.808Z" transform="translate(-37.246 0)" fill="#fff"></path><path id="Path_57" data-name="Path 57" d="M17.268,202.345c.961,0,1.824.006,2.686,0a1.617,1.617,0,0,1,1.724.984,1.687,1.687,0,0,1-.56,1.91c-2.981,2.953-5.944,5.925-8.926,8.877a1.6,1.6,0,0,1-2.6-.007c-2.978-2.956-5.94-5.929-8.915-8.888a1.634,1.634,0,0,1-.55-1.9,1.638,1.638,0,0,1,1.732-.974c.837.008,1.675,0,2.67,0v-1.179q0-6.918,0-13.836c0-1.673.466-2.138,2.119-2.139q4.313,0,8.626,0c1.465,0,1.989.515,1.991,1.97q.01,7.015,0,14.029v1.155M5.692,205.5l5.265,5.269,5.216-5.206c-2-.541-2.008-.551-2.008-2.836q0-6.673,0-13.346v-1.017H7.634V189.5q0,6.818,0,13.636c0,1.822-.236,2.1-1.941,2.372" transform="translate(0 -137.289)" fill="#fff"></path><path id="Path_58" data-name="Path 58" d="M252.7,202.347h2.772a1.576,1.576,0,0,1,1.141,2.808c-2.994,2.985-5.978,5.982-8.98,8.96a1.6,1.6,0,0,1-2.6-.009c-2.981-2.954-5.945-5.923-8.928-8.875a1.679,1.679,0,0,1-.554-1.91,1.621,1.621,0,0,1,1.729-.977c.838.009,1.677,0,2.68,0v-1.063q0-6.966,0-13.932c0-1.707.461-2.158,2.19-2.159q4.265,0,8.529,0c1.517,0,2.015.5,2.018,2.047q.01,6.918,0,13.836Zm-11.634,3.2,5.177,5.2,5.238-5.23c-1.75-.356-1.886-.525-1.886-2.532q0-6.77,0-13.54v-1.1h-6.531v1.094q0,6.77,0,13.54c0,1.984-.14,2.16-2,2.565" transform="translate(-174.542 -137.289)" fill="#fff"></path><path id="Path_59" data-name="Path 59" d="M134.981,244.873c.984,0,1.849,0,2.715,0a1.594,1.594,0,0,1,1.176,2.848c-3,2.978-5.987,5.973-8.992,8.948a1.576,1.576,0,0,1-2.529.019c-3.026-3-6.034-6.018-9.054-9.023a1.57,1.57,0,0,1-.449-1.841,1.605,1.605,0,0,1,1.652-.95c.868,0,1.735,0,2.738,0v-1.1q0-6.966,0-13.933c0-1.641.485-2.124,2.142-2.127q4.265-.01,8.529,0c1.576.005,2.069.509,2.07,2.1q.007,6.918,0,13.836v1.218m-9.638-14.009v1.18q0,7.017,0,14.034c0,1.336-.421,1.766-1.767,1.9-.11.011-.216.059-.164.044l5.1,5.113,5.161-5.144c-1.47-.143-1.792-.5-1.792-2.23q0-6.92,0-13.84v-1.056Z" transform="translate(-87.266 -168.813)" fill="url(#linear-gradient)"></path><path id="Path_60" data-name="Path 60" d="M148.211,58.5c.014,1.358-.566,2.074-1.468,2.118s-1.508-.618-1.634-1.773a3.116,3.116,0,1,0-6.209.543,3.174,3.174,0,0,0,3.272,2.808,6.161,6.161,0,0,1,6.028,6.485,5.859,5.859,0,0,1-3.607,5.309,1.028,1.028,0,0,0-.721,1.158,10.339,10.339,0,0,1-.024,1.836,1.555,1.555,0,0,1-1.536,1.456,1.431,1.431,0,0,1-1.492-1.557c.183-1.636-.332-2.5-1.941-3.2a5.4,5.4,0,0,1-3.077-4.827c-.1-1.2.481-1.953,1.452-2,.913-.046,1.516.6,1.641,1.76a3.116,3.116,0,1,0,3.035-3.332A6.273,6.273,0,0,1,136,60.709a6.152,6.152,0,0,1,4.012-7.5c.6-.209.836-.465.78-1.083a10.133,10.133,0,0,1,0-1.548,1.525,1.525,0,0,1,1.438-1.536,1.541,1.541,0,0,1,1.62,1.462,10.147,10.147,0,0,1,.02,1.836,1.025,1.025,0,0,0,.74,1.149,5.954,5.954,0,0,1,3.6,5.012" transform="translate(-100.658 -36.357)" fill="url(#linear-gradient)"></path></g></svg>