<svg xmlns="http://www.w3.org/2000/svg" xmlns:xlink="http://www.w3.org/1999/xlink" id="Technology" width="68.377" height="71" viewBox="0 0 68.377 71"><defs><clipPath id="clip-path"><rect id="Rectangle_35" data-name="Rectangle 35" width="68.377" height="71" fill="#1f1f1f"></rect></clipPath><linearGradient id="linear-gradient" x1="0.5" x2="0.5" y2="1" gradientUnits="objectBoundingBox"><stop offset="0" stop-color="#3d49f3"></stop><stop offset="1" stop-color="#02d085"></stop></linearGradient></defs><g id="Group_58" data-name="Group 58" clip-path="url(#clip-path)"><path id="Path_82" data-name="Path 82" d="M189.893,0a22.008,22.008,0,1,1-22.074,21.942A22,22,0,0,1,189.893,0m15.8,21v0c1.11,0,2.22-.018,3.329.007.583.013.811-.165.759-.795a19.786,19.786,0,0,0-3.378-9.5c-.253-.379-.51-.39-.915-.249-1.615.561-3.234,1.117-4.875,1.6-.594.173-.721.363-.518.943a26.941,26.941,0,0,1,1.446,7.279c.033.531.242.727.749.722,1.134-.012,2.268,0,3.4,0m-31.718,1.982c-1.157,0-2.314.006-3.471,0-.45,0-.659.153-.618.644a20.121,20.121,0,0,0,3.348,9.582.718.718,0,0,0,1.014.307c1.586-.566,3.185-1.1,4.8-1.576.616-.18.75-.4.541-1a25.79,25.79,0,0,1-1.425-7.2c-.029-.551-.236-.77-.79-.759-1.133.024-2.266.007-3.4.009m5.72-10.7c-.32-.1-.616-.192-.91-.29-1.463-.484-2.941-.929-4.382-1.473a.9.9,0,0,0-1.287.435,20.355,20.355,0,0,0-3.229,9.335c-.053.588.214.712.7.711,2.243-.005,4.487-.015,6.73.007.635.006.812-.266.852-.863A23.78,23.78,0,0,1,178.555,17c.317-1.552.739-3.082,1.139-4.711m20.275,19.352a1.866,1.866,0,0,0,.282.158c1.806.6,3.61,1.209,5.428,1.77a.8.8,0,0,0,.69-.279,19.271,19.271,0,0,0,3.415-9.633c.038-.521-.149-.683-.645-.68q-3.4.02-6.806,0c-.546,0-.734.191-.8.749-.177,1.554-.39,3.107-.685,4.642-.212,1.1-.579,2.176-.88,3.274M184.5,21c1.205,0,2.411-.009,3.616,0,.5.006.757-.176.754-.714q-.018-3.11,0-6.22c0-.477-.177-.665-.672-.709-1.965-.176-3.924-.415-5.89-.582a.854.854,0,0,0-.66.446,25.628,25.628,0,0,0-1.529,7.034c-.047.531.165.749.693.743,1.229-.013,2.459,0,3.689,0m10.718,0v0h2.752c1.592,0,1.722-.022,1.47-1.564-.341-2.084-.893-4.135-1.4-6.188a.814.814,0,0,0-.633-.461c-1.969.161-3.931.394-5.9.567-.5.044-.669.232-.667.712.012,2.052.019,4.1,0,6.155-.007.621.274.792.834.783,1.183-.019,2.365-.006,3.548-.006m-10.727,1.978c-1.205,0-2.411.015-3.616-.007-.551-.01-.8.174-.741.759a28.886,28.886,0,0,0,1.452,6.909.7.7,0,0,0,.886.565c1.933-.243,3.873-.429,5.814-.6.515-.044.579-.324.579-.718,0-2.049-.007-4.1.007-6.147,0-.547-.2-.784-.765-.772-1.2.025-2.411.008-3.616.008m6.357,3.8c0,1.061,0,2.123,0,3.184,0,.4.125.6.576.643,1.943.172,3.886.354,5.821.6a.693.693,0,0,0,.887-.56,28.484,28.484,0,0,0,1.452-6.914c.047-.517-.117-.759-.669-.756q-3.691.021-7.382,0c-.494,0-.7.2-.688.692.014,1.037,0,2.075.006,3.112M174.991,8.567a7.6,7.6,0,0,0,.769.357c1.332.424,2.676.814,4,1.263a.867.867,0,0,0,1.249-.537,24.774,24.774,0,0,1,4.811-6.667c.155-.155.293-.327.438-.491l-.139-.169a19.852,19.852,0,0,0-11.128,6.244m18.592-6.235-.11.179a3.036,3.036,0,0,0,.219.268,25.371,25.371,0,0,1,5.092,7.077.624.624,0,0,0,.867.377c.762-.228,1.542-.4,2.3-.635.885-.28,1.754-.609,2.813-.982a19.952,19.952,0,0,0-11.18-6.285m11,33.207q0-.159,0-.317c-1.585-.476-3.174-.937-4.751-1.434-.578-.182-.869.005-1.128.531a24.983,24.983,0,0,1-4.867,6.709c-.145.143-.265.311-.4.468a18.638,18.638,0,0,0,11.144-5.957M186.19,41.493a3.181,3.181,0,0,0-.3-.408,25.188,25.188,0,0,1-5-6.973c-.226-.469-.55-.469-.953-.344-1.382.426-2.765.847-4.144,1.285a4.955,4.955,0,0,0-.68.333c1.6,2.621,8.658,6.508,11.069,6.108m2.585-38.267c-1.7.727-5.812,6.01-5.914,7.675,1.693.142,3.392.272,5.088.432.687.065.939-.18.928-.885-.034-2.173-.01-4.346-.016-6.52a5.99,5.99,0,0,0-.085-.7m-.1,37.67a1.712,1.712,0,0,0,.16-.4q.012-3.655.012-7.31c0-.472-.313-.546-.686-.52-1.178.083-2.356.156-3.531.265-.606.056-1.206.181-1.961.3a23.192,23.192,0,0,0,6.006,7.67M191.015,3.1a1.894,1.894,0,0,0-.149.383q-.013,3.652-.02,7.3c0,.4.2.563.587.537,1.081-.071,2.164-.119,3.243-.218.729-.067,1.452-.206,2.336-.336a22.727,22.727,0,0,0-6-7.67m5.947,30.215a2.57,2.57,0,0,0-.5-.186c-1.6-.162-3.206-.307-4.808-.474-.649-.068-.832.224-.825.835.024,2.191.007,4.383.012,6.575,0,.222.051.444.1.864a22.635,22.635,0,0,0,6.017-7.614" transform="translate(-143.496 0)" fill="url(#linear-gradient)"></path><path id="Path_83" data-name="Path 83" d="M21.148,60.713c0,1.3,0,2.608,0,3.912A2.538,2.538,0,0,0,22.7,67.1a20.894,20.894,0,0,0,7.1,1.872,32.346,32.346,0,0,0,11.572-.694,21.529,21.529,0,0,0,3.2-1.14c1.278-.558,1.49-1.085,1.4-2.453-.128-1.851-.3-3.709-.258-5.56a24.192,24.192,0,0,1,2.272-9.873,10.641,10.641,0,0,1,.548-1.02.934.934,0,0,1,1.362-.395.95.95,0,0,1,.351,1.379c-.143.306-.316.6-.455.906A24.5,24.5,0,0,0,47.738,62.41c.074.913.243,1.822.264,2.735a3.732,3.732,0,0,1-2.108,3.6,20.16,20.16,0,0,1-6.838,2.02,35.167,35.167,0,0,1-14-.7,20.326,20.326,0,0,1-3.566-1.381,4.036,4.036,0,0,1-2.324-3.876c-.01-2.318,0-4.637,0-6.955,0-1.2-.182-1.352-1.363-1.373a38.485,38.485,0,0,1-4.62-.2,19,19,0,0,1-4.034-1.066,3.687,3.687,0,0,1-2.556-3.538c-.047-2.795-.022-5.592.057-8.386.032-1.152.12-1.127-.921-1.628-1.283-.617-2.567-1.236-3.813-1.923a3.349,3.349,0,0,1-1.283-5c.917-1.505,1.851-3,2.759-4.511a26.527,26.527,0,0,0,3.8-9.985A23.149,23.149,0,0,1,12.586,8.4,23.463,23.463,0,0,1,26.687.617C27.8.41,28.929.287,30.056.19c.778-.067,1.284.341,1.313.925.027.55-.412.954-1.162,1.023a27.61,27.61,0,0,0-7.877,1.78c-6.83,2.762-10.923,7.893-12.8,14.9-.416,1.555-.554,3.182-.928,4.75a12.661,12.661,0,0,1-1.073,3.058c-1.6,2.973-3.286,5.9-4.983,8.822-.837,1.44-.754,2.023.714,2.768,1.484.753,3,1.439,4.517,2.13.888.4,1.023.7.984,1.685-.117,2.962-.188,5.925-.263,8.889a2.486,2.486,0,0,0,2.062,2.751c1.711.37,3.451.628,5.19.841,1.119.137,2.274.007,3.386.174a2.14,2.14,0,0,1,2,2.4c.014,1.207,0,2.415,0,3.622Z" transform="translate(0 -0.156)" fill="#1f1f1f"></path><path id="Path_84" data-name="Path 84" d="M214.183,324.084a.967.967,0,0,1-.1-1.931.974.974,0,0,1,1.04.961.928.928,0,0,1-.942.97" transform="translate(-182.286 -275.461)" fill="#1f1f1f"></path><path id="Path_85" data-name="Path 85" d="M126.227,226.659a.97.97,0,0,1,.936-1,.951.951,0,0,1,1,.919,1.008,1.008,0,0,1-.956,1.06,1.059,1.059,0,0,1-.984-.981" transform="translate(-107.932 -192.954)" fill="#1f1f1f"></path><path id="Path_86" data-name="Path 86" d="M117.356,97.189a.935.935,0,0,1-.97.946,1.009,1.009,0,0,1-1.005-.938,1.032,1.032,0,0,1,1.03-1,.984.984,0,0,1,.946.991" transform="translate(-98.658 -82.255)" fill="#1f1f1f"></path><path id="Path_87" data-name="Path 87" d="M131.831,57.01a.97.97,0,0,1,.027-1.939,1,1,0,0,1,1,.936,1.045,1.045,0,0,1-1.024,1" transform="translate(-111.934 -47.089)" fill="#1f1f1f"></path><path id="Path_88" data-name="Path 88" d="M178.309,298.459a1.037,1.037,0,0,1-1.028-.927,1,1,0,0,1,.977-1.04.965.965,0,0,1,.968.961.952.952,0,0,1-.917,1.006" transform="translate(-151.585 -253.521)" fill="#1f1f1f"></path><path id="Path_89" data-name="Path 89" d="M114.27,183.7a.921.921,0,0,1,.965.943,1,1,0,0,1-.917,1.023,1.063,1.063,0,0,1-1.029-1.006,1,1,0,0,1,.981-.96" transform="translate(-96.869 -157.076)" fill="#1f1f1f"></path><path id="Path_90" data-name="Path 90" d="M150.068,265a1.042,1.042,0,0,1-.974.972.975.975,0,0,1-.962-1.034.9.9,0,0,1,.987-.908.957.957,0,0,1,.949.97" transform="translate(-126.662 -225.764)" fill="#1f1f1f"></path><path id="Path_91" data-name="Path 91" d="M109.939,140.961a.9.9,0,0,1,.923-.973,1,1,0,0,1,1.029.9,1.083,1.083,0,0,1-1,1.041.966.966,0,0,1-.953-.969" transform="translate(-94.005 -119.699)" fill="#1f1f1f"></path><path id="Path_92" data-name="Path 92" d="M255.251,340.338a.888.888,0,0,1-.918.969.956.956,0,0,1-1.023-.893,1.068,1.068,0,0,1,.984-1.047.994.994,0,0,1,.957.97" transform="translate(-216.596 -290.182)" fill="#1f1f1f"></path><path id="Path_93" data-name="Path 93" d="M297.537,348.035a.914.914,0,0,1,.958.951.991.991,0,0,1-.986.96,1.02,1.02,0,0,1-.974-.983.964.964,0,0,1,1-.928" transform="translate(-253.558 -297.593)" fill="#1f1f1f"></path></g></svg>