<svg xmlns="http://www.w3.org/2000/svg" xmlns:xlink="http://www.w3.org/1999/xlink" id="The_Accounting" data-name="The Accounting" width="81" height="73.261" viewBox="0 0 81 73.261"><defs><clipPath id="clip-path"><rect id="Rectangle_34" data-name="Rectangle 34" width="81" height="73.261" fill="none"></rect></clipPath><linearGradient id="linear-gradient" x1="0.5" x2="0.5" y2="1" gradientUnits="objectBoundingBox"><stop offset="0" stop-color="#3d49f3"></stop><stop offset="1" stop-color="#02d085"></stop></linearGradient></defs><g id="Group_57" data-name="Group 57" clip-path="url(#clip-path)"><path id="Path_79" data-name="Path 79" d="M13.841,272.34c.26-.2.442-.32.609-.462,3.324-2.856,7.239-3.71,11.5-3.422a35.426,35.426,0,0,1,7.974,1.567,9.933,9.933,0,0,0,4.144.109c4.205-.478,8.408-.976,12.615-1.436a7.94,7.94,0,0,1,4.848.89,4.943,4.943,0,0,1,.454,8.584,11.707,11.707,0,0,1-5,1.635q-3.461.588-6.918,1.2a.718.718,0,0,0-.5.358c1.74.243,3.477.511,5.223.708a2.6,2.6,0,0,0,1.064-.314q10.776-4.05,21.549-8.109a8.941,8.941,0,0,1,4.968-.638c3.131.612,5.24,3.634,4.463,6.495a4.6,4.6,0,0,1-2.988,3.2q-9.915,3.794-19.824,7.6a28.326,28.326,0,0,1-7.784,2.292c-2.258.186-4.516.44-6.778.491-5.159.116-10.32.105-15.48.184a32.867,32.867,0,0,0-8.18,1.233c-.582.159-.84.37-.774,1.075.233,2.482-.956,4.019-3.4,4.571-1.8.406-3.591.831-5.392,1.225a3.893,3.893,0,0,1-4.928-3.044Q2.671,286.946.1,275.54a3.862,3.862,0,0,1,2.845-4.6c2.1-.533,4.214-1.012,6.335-1.458a3.894,3.894,0,0,1,4.1,1.978c.143.258.274.523.461.881m21.978,18.476c0,.029,0,.058,0,.087,4.182-.18,8.365-.316,12.543-.557a19.308,19.308,0,0,0,5.977-1.229c4.06-1.59,8.138-3.133,12.21-4.7q5.165-1.981,10.329-3.962a2.283,2.283,0,0,0,1-3.845,4.378,4.378,0,0,0-1.794-1.122,5.643,5.643,0,0,0-3.92.482Q61.076,280.148,49.98,284.3a3.608,3.608,0,0,1-1.663.18c-3.333-.434-6.658-.922-9.986-1.395-1.207-.171-2.416-.333-3.618-.535a1.205,1.205,0,0,1-.048-2.382c.169-.041.338-.085.51-.114q7.949-1.372,15.9-2.743a8.114,8.114,0,0,0,3.577-1.206,2.453,2.453,0,0,0-.021-4.2,3.127,3.127,0,0,0-1.417-.621,19.091,19.091,0,0,0-3.412-.006q-5.8.586-11.577,1.3a12.929,12.929,0,0,1-5.532-.36,26.507,26.507,0,0,0-8.671-1.384,12.143,12.143,0,0,0-9.053,3.954,1.365,1.365,0,0,0-.348,1.357q1.773,7.642,3.52,15.289c.216.941.224.948,1.132.694a36.115,36.115,0,0,1,9.742-1.319h6.806m-19.164,5.245c-.036-.19-.083-.485-.149-.776q-1.386-6.081-2.778-12.161-1.109-4.842-2.226-9.682c-.281-1.216-.938-1.745-1.979-1.52q-2.92.63-5.824,1.336a1.529,1.529,0,0,0-1.181,2c.167.779.352,1.554.53,2.331q2.309,10.046,4.622,20.091c.245,1.061.883,1.551,1.883,1.345,2-.412,3.987-.882,5.97-1.366a1.486,1.486,0,0,0,1.131-1.595" transform="translate(0 -228.242)" fill="#1f1f1f"></path><path id="Path_80" data-name="Path 80" d="M173.96,33.772a16.886,16.886,0,1,1,16.947-16.825A16.835,16.835,0,0,1,173.96,33.772m.006-2.448a14.439,14.439,0,1,0-14.416-14.48,14.452,14.452,0,0,0,14.416,14.48" transform="translate(-133.6 0)" fill="url(#linear-gradient)"></path><path id="Path_81" data-name="Path 81" d="M244.518,48.533c-.026-1.453-.389-1.938-1.8-2.354-.716-.211-1.45-.365-2.161-.59-2.278-.719-3.183-1.9-3.388-4.363a4.86,4.86,0,0,1,2.687-4.934,1.425,1.425,0,0,0,1.008-1.706,3.1,3.1,0,0,1,.006-.672A1.191,1.191,0,0,1,242,32.741a1.206,1.206,0,0,1,1.256.965.327.327,0,0,1,.03.145c-.328,1.5.489,2.194,1.694,2.9a4.109,4.109,0,0,1,1.932,3.753,1.211,1.211,0,0,1-1.064,1.314,1.251,1.251,0,0,1-1.313-1.078c-.04-.169-.051-.344-.08-.516a2.426,2.426,0,0,0-4.183-1.264,2.625,2.625,0,0,0,1.146,4.339c.811.241,1.644.414,2.441.692a4.16,4.16,0,0,1,3.071,4.271,5.018,5.018,0,0,1-3.117,5.2,1.2,1.2,0,0,0-.486.785,10.413,10.413,0,0,0-.036,1.266,1.3,1.3,0,0,1-1.244,1.258,1.283,1.283,0,0,1-1.183-1.3,1.741,1.741,0,0,1,0-.373,1.667,1.667,0,0,0-1.153-1.994,4.472,4.472,0,0,1-2.511-3.976,1.277,1.277,0,0,1,1.081-1.468c.649-.086,1.185.413,1.318,1.225.3,1.856,1.7,2.834,3.267,2.3a2.538,2.538,0,0,0,1.655-2.651" transform="translate(-201.666 -27.842)" fill="url(#linear-gradient)"></path></g></svg>