<svg xmlns="http://www.w3.org/2000/svg" xmlns:xlink="http://www.w3.org/1999/xlink" width="68" height="68.637" viewBox="0 0 68 68.637"><defs><linearGradient id="linear-gradient" x1="0.5" x2="0.5" y2="1" gradientUnits="objectBoundingBox"><stop offset="0" stop-color="#3d49f3"></stop><stop offset="1" stop-color="#02d085"></stop></linearGradient></defs><g id="We_auarantee" transform="translate(-83.4 -74.8)"><path id="Path_30" data-name="Path 30" d="M406.889,116.9a6.343,6.343,0,0,0-6.335,6.335v15.971a8.656,8.656,0,0,0-8.043,8.616v4.856l-2.192,1.835a9.494,9.494,0,0,0-3.429,7.316v9.8h-1.619A1.776,1.776,0,0,0,383.5,173.4v4.971a1.776,1.776,0,0,0,1.772,1.772h21.834a1.776,1.776,0,0,0,1.772-1.772V173.4a1.776,1.776,0,0,0-1.772-1.772H405.92l6.6-14.658a8.147,8.147,0,0,0,.727-3.39V123.248a6.384,6.384,0,0,0-6.36-6.348Zm.382,56.516v4.971a.2.2,0,0,1-.191.191H385.246a.2.2,0,0,1-.191-.191v-4.971a.2.2,0,0,1,.191-.191H407.08a.2.2,0,0,1,.191.191Zm4.359-19.82a6.54,6.54,0,0,1-.586,2.74l-6.9,15.308h-15.69v-9.8a7.92,7.92,0,0,1,2.855-6.105l2.485-2.078a.814.814,0,0,0,.28-.612v-5.226a7.063,7.063,0,0,1,7.048-7.049h.969a.653.653,0,0,1,.65.65v10.324a.79.79,0,1,0,1.581,0V141.423a2.23,2.23,0,0,0-2.218-2.231V123.248a4.754,4.754,0,0,1,9.509,0Z" transform="translate(-261.849 -36.734)" fill="#1f1f1f"></path><path id="Path_31" data-name="Path 31" d="M111.352,171.731h-1.619v-9.8a9.494,9.494,0,0,0-3.429-7.316l-2.192-1.835v-4.856a8.647,8.647,0,0,0-8.043-8.616V123.335a6.335,6.335,0,1,0-12.67,0V153.7a8.4,8.4,0,0,0,.727,3.39l6.6,14.658H89.544a1.787,1.787,0,0,0-1.784,1.772v4.971a1.779,1.779,0,0,0,1.784,1.772h21.834a1.787,1.787,0,0,0,1.784-1.772v-4.971a1.837,1.837,0,0,0-1.81-1.784ZM85.541,156.411a6.539,6.539,0,0,1-.586-2.74V123.322a4.754,4.754,0,0,1,9.509,0v15.945a2.239,2.239,0,0,0-2.218,2.231v10.324a.79.79,0,1,0,1.581,0V141.5a.653.653,0,0,1,.65-.65h.969a7.064,7.064,0,0,1,7.049,7.049v5.226a.794.794,0,0,0,.28.612l2.485,2.078a7.9,7.9,0,0,1,2.855,6.105v9.8H92.437Zm25.989,22.063a.2.2,0,0,1-.191.191H89.505a.2.2,0,0,1-.191-.191V173.5a.2.2,0,0,1,.191-.191h21.834a.2.2,0,0,1,.191.191v4.971Z" transform="translate(0 -36.821)" fill="#1f1f1f"></path><path id="Path_32" data-name="Path 32" d="M224.492,100.394a.727.727,0,0,0,.28.051.824.824,0,0,0,.752-.51,16.408,16.408,0,0,1,9.088-9.419h2.205a5.305,5.305,0,0,0-1.53,3.722.79.79,0,0,0,1.581,0,3.722,3.722,0,1,1,7.444,0,.79.79,0,0,0,1.581,0,5.305,5.305,0,0,0-1.53-3.722h2.218a15.972,15.972,0,0,1,5.379,3.556,16.393,16.393,0,0,1,3.582,5.417.8.8,0,0,0,1.479-.586,17.553,17.553,0,0,0-3.926-5.952,16.993,16.993,0,0,0-4.13-3.034,1.776,1.776,0,0,0,.459-1.173V85.927a1.79,1.79,0,0,0-1.784-1.784H247.1l2.536-5.455a2.737,2.737,0,0,0-2.485-3.888H234.026a2.743,2.743,0,0,0-2.485,3.9l2.536,5.455h-.535a1.79,1.79,0,0,0-1.784,1.784v2.817a1.765,1.765,0,0,0,.472,1.2,18.079,18.079,0,0,0-8.221,9.445.8.8,0,0,0,.484.994Zm8.5-22.369a1.114,1.114,0,0,1,.076-1.109,1.155,1.155,0,0,1,.969-.535h13.1a1.126,1.126,0,0,1,.969.535,1.114,1.114,0,0,1,.076,1.109l-2.868,6.118h-9.47Zm.37,7.9a.2.2,0,0,1,.191-.191H247.6a.2.2,0,0,1,.191.191v2.817a.2.2,0,0,1-.191.191H233.555a.2.2,0,0,1-.191-.191Z" transform="translate(-122.649 0)" fill="#1f1f1f"></path><path id="Path_33" data-name="Path 33" d="M301.79,445.9a.786.786,0,0,0-.79.79.794.794,0,0,0,.79.79h10.49a.786.786,0,0,0,.79-.79.794.794,0,0,0-.79-.79Z" transform="translate(-189.865 -323.8)" fill="#1f1f1f"></path><path id="Path_34" data-name="Path 34" d="M289.1,257.4A11.1,11.1,0,1,0,278,268.5,11.111,11.111,0,0,0,289.1,257.4ZM278,266.923a9.521,9.521,0,1,1,9.521-9.521A9.53,9.53,0,0,1,278,266.923Z" transform="translate(-160.111 -149.641)" fill="url(#linear-gradient)"></path><path id="Path_35" data-name="Path 35" d="M333.108,284.532c.013,0,.026.013.038.013s.026-.013.038-.013a1.448,1.448,0,0,1,1.4,1.44.79.79,0,1,0,1.58,0,3.047,3.047,0,0,0-2.243-2.919v-.663a.79.79,0,0,0-1.581,0v.663a3.021,3.021,0,0,0,.79,5.94,1.447,1.447,0,0,1,.038,2.893c-.013,0-.025-.013-.038-.013s-.026.013-.038.013a1.439,1.439,0,0,1-1.4-1.44.79.79,0,1,0-1.581,0,3.032,3.032,0,0,0,2.243,2.906v.663a.79.79,0,0,0,1.581,0v-.663a3.021,3.021,0,0,0-.79-5.94,1.44,1.44,0,0,1-.038-2.881Z" transform="translate(-215.256 -180.441)" fill="url(#linear-gradient)"></path></g></svg>