<svg xmlns="http://www.w3.org/2000/svg" xmlns:xlink="http://www.w3.org/1999/xlink" id="We_strive" width="59.396" height="76" viewBox="0 0 59.396 76"><defs><clipPath id="clip-path"><rect id="Rectangle_28" data-name="Rectangle 28" width="59.396" height="76" fill="none"></rect></clipPath><linearGradient id="linear-gradient" x1="0.5" x2="0.5" y2="1" gradientUnits="objectBoundingBox"><stop offset="0" stop-color="#3d49f3"></stop><stop offset="1" stop-color="#02d085"></stop></linearGradient></defs><g id="Group_48" data-name="Group 48" clip-path="url(#clip-path)"><path id="Path_36" data-name="Path 36" d="M29.306,49.614c-.223.374-.389.633-.536.9q-6.686,12.2-13.369,24.4c-.068.124-.107.29-.212.363-.365.253-.769.67-1.129.644-.288-.021-.7-.565-.77-.931-.309-1.576-.509-3.172-.756-4.759-.221-1.42-.423-2.844-.686-4.256-.3-1.624-.663-1.828-2.206-1.123-2.622,1.2-5.212,2.469-7.815,3.708a1.633,1.633,0,0,1-.625.26,1.661,1.661,0,0,1-1-.228,1.227,1.227,0,0,1-.194-.917,2.258,2.258,0,0,1,.369-.754C4.4,59.586,8.4,52.235,12.472,44.92c.677-1.218.121-2.289-.042-3.418-.023-.156-.442-.3-.7-.373-1.213-.334-2.45-.591-3.647-.971-1.486-.471-1.84-1.129-1.5-2.644.264-1.182.554-2.36.9-3.522a1.161,1.161,0,0,0-.5-1.5,31.226,31.226,0,0,1-2.93-2.349c-1.007-.911-1.069-1.569-.273-2.674.811-1.126,1.692-2.205,2.575-3.279a.869.869,0,0,0,.1-1.132c-.631-1.136-1.258-2.279-1.792-3.461a1.729,1.729,0,0,1,.845-2.637c1.176-.7,2.4-1.324,3.63-1.923a.982.982,0,0,0,.634-1.124c-.1-1.32-.19-2.645-.18-3.967.009-1.224.514-1.739,1.758-1.878,1.338-.149,2.684-.283,4.028-.3a1.162,1.162,0,0,0,1.258-.956c.357-1.068.759-2.126,1.22-3.155.685-1.531,1.3-1.8,2.923-1.292,1.172.368,2.325.8,3.464,1.256a1.145,1.145,0,0,0,1.492-.316A33.241,33.241,0,0,1,28.41.678,1.756,1.756,0,0,1,31.151.639c1.062.9,2.057,1.882,3.049,2.86a.957.957,0,0,0,1.212.221c1.184-.5,2.382-.977,3.606-1.363,1.39-.439,2.012-.166,2.63,1.138.568,1.2,1.066,2.43,1.527,3.672a1.024,1.024,0,0,0,1.135.758c1.146,0,2.294.063,3.437.153,1.783.141,2.3.7,2.288,2.485-.006,1.127-.043,2.257-.144,3.379a1.23,1.23,0,0,0,.881,1.476,26.173,26.173,0,0,1,3.284,1.656,1.7,1.7,0,0,1,.838,2.562c-.527,1.216-1.117,2.408-1.741,3.58a1.037,1.037,0,0,0,.157,1.41,32.766,32.766,0,0,1,2.187,2.61c1.087,1.429,1.032,2.072-.3,3.264-.954.853-1.962,1.648-2.966,2.445a.86.86,0,0,0-.344,1.083c.381,1.209.717,2.434,1,3.669.327,1.42-.021,2.042-1.439,2.518-1.3.436-2.626.8-3.954,1.142a.918.918,0,0,0-.758.849,4.3,4.3,0,0,0,.556,3.2c3.973,7.142,7.881,14.319,11.81,21.484.1.173.26.346.266.524.014.413.1.945-.124,1.208a1.3,1.3,0,0,1-1.144.118c-.958-.366-1.868-.855-2.8-1.294-1.575-.743-3.149-1.489-4.727-2.224-.362-.169-.735-.316-1.112-.449-1.644-.579-2.15-.384-2.532,1.277-.473,2.058-.8,4.149-1.176,6.227-.156.86-.285,1.724-.425,2.586-.085.517-.192,1.028-.842,1.122s-.9-.339-1.161-.808q-3.868-7.07-7.749-14.133c-2.067-3.767-4.135-7.534-6.274-11.432m18.841-36.6c0-.62.006-1.24,0-1.86A1.112,1.112,0,0,0,46.971,9.89c-1.031-.043-2.061-.115-3.092-.143a2.272,2.272,0,0,1-2.257-1.507c-.4-1-.79-1.994-1.228-2.973s-.793-1.141-1.82-.794c-.866.292-1.722.621-2.558.985a2.476,2.476,0,0,1-3.044-.578c-.592-.614-1.212-1.2-1.837-1.784-1.172-1.091-1.5-1.09-2.634,0-.552.534-1.1,1.072-1.611,1.646a2.43,2.43,0,0,1-3.011.689c-.872-.355-1.766-.662-2.661-.959-1.261-.417-1.6-.263-2.1.959-.311.757-.613,1.521-.851,2.3a2.448,2.448,0,0,1-2.547,1.851c-1,.029-2.007.095-3,.191-.979.095-1.251.394-1.243,1.362.007.845.053,1.692.135,2.533.159,1.643-.129,2.21-1.625,3-.783.411-1.584.791-2.359,1.218-1.165.642-1.272.981-.684,2.179.361.735.74,1.466,1.169,2.163a2.338,2.338,0,0,1-.246,3.031q-.995,1.166-1.909,2.4c-.614.829-.568,1.191.228,1.879a18.722,18.722,0,0,0,1.95,1.527A2.564,2.564,0,0,1,9.3,34.34a25.028,25.028,0,0,0-.694,2.7c-.21,1-.007,1.336.988,1.634a26.337,26.337,0,0,0,2.661.673,2.454,2.454,0,0,1,2.159,2.283c.147,1,.348,2,.527,3a1.1,1.1,0,0,0,1.382,1.031c.963-.14,1.935-.246,2.883-.455a2.455,2.455,0,0,1,2.863,1.159c.567.881,1.185,1.73,1.776,2.6a1.167,1.167,0,0,0,1.775.359c.7-.435,1.4-.881,2.086-1.343,1.62-1.09,2.046-1.1,3.731-.058q1.2.743,2.413,1.467a1.094,1.094,0,0,0,1.635-.344q.765-1.123,1.5-2.27c.924-1.451,1.478-1.7,3.216-1.427q1.4.219,2.808.4a1.117,1.117,0,0,0,1.432-.976c.156-.916.359-1.83.436-2.753a2.484,2.484,0,0,1,2.088-2.444c1.027-.252,2.04-.562,3.056-.857a1.087,1.087,0,0,0,.836-1.5c-.239-.87-.443-1.752-.745-2.6a2.471,2.471,0,0,1,.96-3.122c.756-.558,1.477-1.165,2.182-1.786.887-.781.913-1.13.189-2.08-.4-.519-.825-1.012-1.255-1.5-1.507-1.725-1.552-2.068-.536-4.06q.6-1.17,1.159-2.357A1.026,1.026,0,0,0,52.3,18.22c-.552-.3-1.108-.592-1.675-.86-2.669-1.26-2.755-1.4-2.475-4.346M32.117,50.556l-.112.1,11.839,21.6c.095-.513.142-.786.2-1.059.372-1.907.645-3.84,1.141-5.716.7-2.637,2.2-3.394,4.78-2.421,1.894.714,3.709,1.631,5.56,2.454.219.1.446.179.891.357l-10.45-19.06c-.751.811-.927.946-1.936.862-1.4-.116-2.789-.31-4.175-.522a1.12,1.12,0,0,0-1.318.615,34.587,34.587,0,0,1-1.9,2.914c-.987,1.357-1.635,1.475-3.135.673-.467-.25-.919-.529-1.377-.8M3.2,65.652l.138.144c.557-.269,1.107-.554,1.673-.8,1.643-.727,3.256-1.537,4.949-2.13s2.839.051,3.4,1.731a15.19,15.19,0,0,1,.545,2.3c.284,1.683.522,3.374.778,5.061l.186.042L26.267,51.21c-2.17.905-2.533.812-3.789-.944-.643-.9-1.278-1.806-1.856-2.745a.989.989,0,0,0-1.21-.488c-1.066.212-2.143.377-3.218.544a2.544,2.544,0,0,1-2.683-.735L3.2,65.652" transform="translate(0.001 0)" fill="#1f1f1f"></path><path id="Path_37" data-name="Path 37" d="M62.308,61.382A19.025,19.025,0,1,1,81.24,80.1,18.888,18.888,0,0,1,62.308,61.382m36.181.025a17.163,17.163,0,1,0-17.12,16.844,17.034,17.034,0,0,0,17.12-16.844" transform="translate(-51.582 -35.467)" fill="#1f1f1f"></path><path id="Path_38" data-name="Path 38" d="M123.425,99.557c2.053,0,4.084.007,6.115,0,.573,0,1.119.026,1.342.657.229.648-.243.981-.678,1.315-1.422,1.093-2.827,2.21-4.278,3.263a1,1,0,0,0-.422,1.273c.5,1.76.97,3.53,1.444,5.3.139.519.322,1.066-.227,1.472-.591.438-1.072.068-1.557-.245-1.508-.974-3.035-1.921-4.521-2.926a1.026,1.026,0,0,0-1.359-.02c-1.53,1.042-3.086,2.05-4.678,3a1.832,1.832,0,0,1-1.394.189c-.614-.241-.459-.869-.309-1.407.507-1.818.99-3.642,1.512-5.455a.9.9,0,0,0-.388-1.133c-1.49-1.1-2.942-2.246-4.413-3.368-.426-.325-.814-.663-.587-1.265.221-.584.72-.641,1.268-.638,1.834.012,3.669-.013,5.5.016a.819.819,0,0,0,.929-.62c.7-1.874,1.457-3.729,2.183-5.594.193-.495.4-.95,1.049-.944s.844.471,1.035.962c.8,2.047,1.609,4.091,2.431,6.179m-10.408,1.883-.066.2c.943.728,1.858,1.5,2.839,2.17a1.516,1.516,0,0,1,.66,1.952c-.42,1.332-.746,2.693-1.162,4.223,1.265-.814,2.407-1.465,3.45-2.244a1.785,1.785,0,0,1,2.453.022c1.02.76,2.136,1.4,3.393,2.2-.421-1.571-.764-2.955-1.17-4.321a1.393,1.393,0,0,1,.594-1.747c1.031-.729,2.006-1.535,3.2-2.46-1.462,0-2.659-.052-3.849.017a1.481,1.481,0,0,1-1.71-1.147c-.482-1.393-1.069-2.751-1.7-4.346-.627,1.583-1.209,2.918-1.681,4.29a1.526,1.526,0,0,1-1.758,1.211c-1.16-.075-2.329-.018-3.495-.018" transform="translate(-90.203 -76.775)" fill="url(#linear-gradient)"></path></g></svg>